# xmcd
#
# Track frame offsets: 
#        150
#        20610
#        44125
#        58655
#        75962
#        90187
#        107540
#        129202
#        175675
#
# Disc length: 4440 seconds
#
# Revision: 5
# Processed by: cddbd v1.5.2PL0 Copyright (c) Steve Scherf et al.
# Submitted via: ExactAudioCopy v1.3
#
DISCID=60115609
DTITLE=陶喆 - 樂之路 CD2
DYEAR=2003
DGENRE=Pop
TTITLE0=天天 [Revised 2003 Version]
TTITLE1=飛機場的10:30 [Original Demo]
TTITLE2=黑色柳丁 [Original Voice Recorder Ideas]
TTITLE3=沙灘 [Acapella Demo Version]
TTITLE4=我喜歡 [Ballad Version]
TTITLE5=沙灘 [Guitar Version]
TTITLE6=普通朋友 [Rehearsal With Bruce Watson]
TTITLE7=愛,很簡單 [Original 1993 English Demo]
TTITLE8=Data Track
EXTD=YEAR: 2003
EXTT0=
EXTT1=
EXTT2=
EXTT3=
EXTT4=
EXTT5=
EXTT6=
EXTT7=
EXTT8=
PLAYORDER=
